<svg width="50" height="50" viewBox="0 0 50 50" fill="none" xmlns="http://www.w3.org/2000/svg">
<path d="M26.7453 20.3101L25.4698 22.3786H38.1846L48.3848 6.125C48.3848 6.125 40.4909 17.4486 26.7453 20.3101Z" fill="url(#paint0_linear_140_122)"/>
<path d="M37.147 6.24395C35.0455 6.75281 33.889 8.65275 33.4925 9.38959L26.7452 20.3101C40.4909 17.4486 48.3847 6.125 48.3847 6.125C44.9175 6.125 41.4502 6.125 37.983 6.125C37.6757 6.14152 37.3981 6.18448 37.147 6.24395Z" fill="url(#paint1_linear_140_122)"/>
<path d="M20.15 15.6643C19.0442 13.8228 17.9384 11.9812 16.8325 10.1397C16.5451 9.54159 15.7818 8.1472 14.1561 7.14601C12.9005 6.37282 11.701 6.18117 11.0501 6.125C7.90006 6.125 4.75002 6.125 1.59998 6.125L20.1632 36.078C13.9975 23.8457 19.8526 16.0476 20.15 15.6643Z" fill="url(#paint2_linear_140_122)"/>
<path d="M28.0075 32.0828C27.7828 29.5121 27.0328 27.4338 26.3521 25.9832C24.2858 22.5424 22.2185 19.1027 20.15 15.6641C19.8526 16.0474 13.9975 23.8454 20.1632 36.0777L24.9907 43.8691C26.0415 42.2269 28.5131 37.8488 28.0075 32.0828Z" fill="url(#paint3_linear_140_122)"/>
<defs>
<linearGradient id="paint0_linear_140_122" x1="38.3861" y1="-1.33268" x2="51.1537" y2="20.7826" gradientUnits="userSpaceOnUse">
<stop stop-color="#452080"/>
<stop offset="1" stop-color="#A825A3"/>
</linearGradient>
<linearGradient id="paint1_linear_140_122" x1="38.3464" y1="-0.5727" x2="49.9014" y2="19.4378" gradientUnits="userSpaceOnUse">
<stop stop-color="#311C80"/>
<stop offset="1" stop-color="#A825A3"/>
</linearGradient>
<linearGradient id="paint2_linear_140_122" x1="35.0455" y1="6.125" x2="35.0455" y2="36.078" gradientUnits="userSpaceOnUse">
<stop stop-color="#364BAF"/>
<stop offset="1" stop-color="#AA20A7"/>
</linearGradient>
<linearGradient id="paint3_linear_140_122" x1="59.8241" y1="15.6641" x2="59.8241" y2="43.8691" gradientUnits="userSpaceOnUse">
<stop stop-color="#211771"/>
<stop offset="1" stop-color="#A825A3"/>
</linearGradient>
</defs>
</svg>
